<svg width="16" height="16" viewBox="0 0 16 16" fill="none" xmlns="http://www.w3.org/2000/svg">
<path d="M15.4375 1.78125C15.4375 0.917969 14.707 0.1875 13.8438 0.1875H2.15625C1.25977 0.1875 0.5625 0.917969 0.5625 1.78125V13.4688C0.5625 14.3652 1.25977 15.0625 2.15625 15.0625H8.66406V9.18555H6.67188V6.96094H8.66406V5.30078C8.66406 3.375 9.85938 2.3125 11.5527 2.3125C12.3828 2.3125 13.0801 2.37891 13.3125 2.41211V4.4375H12.1172C11.1875 4.4375 10.9883 4.86914 10.9883 5.5V6.96094H13.3125L13.0137 9.18555H10.9883V15.0625H13.8438C14.707 15.0625 15.4375 14.3652 15.4375 13.4688V1.78125Z" fill="white"/>
</svg>
