<svg width="20" height="13" viewBox="0 0 20 13" fill="none" xmlns="http://www.w3.org/2000/svg">
<path d="M18.666 2.27539C18.4668 1.47852 17.8359 0.847656 17.0723 0.648438C15.6445 0.25 10 0.25 10 0.25C10 0.25 4.32227 0.25 2.89453 0.648438C2.13086 0.847656 1.5 1.47852 1.30078 2.27539C0.902344 3.66992 0.902344 6.6582 0.902344 6.6582C0.902344 6.6582 0.902344 9.61328 1.30078 11.041C1.5 11.8379 2.13086 12.4355 2.89453 12.6348C4.32227 13 10 13 10 13C10 13 15.6445 13 17.0723 12.6348C17.8359 12.4355 18.4668 11.8379 18.666 11.041C19.0645 9.61328 19.0645 6.6582 19.0645 6.6582C19.0645 6.6582 19.0645 3.66992 18.666 2.27539ZM8.14062 9.34766V3.96875L12.8555 6.6582L8.14062 9.34766Z" fill="white"/>
</svg>
