<svg width="16" height="16" viewBox="0 0 16 16" fill="none" xmlns="http://www.w3.org/2000/svg">
<path d="M8 3.80664C5.875 3.80664 4.18164 5.5332 4.18164 7.625C4.18164 9.75 5.875 11.4434 8 11.4434C10.0918 11.4434 11.8184 9.75 11.8184 7.625C11.8184 5.5332 10.0918 3.80664 8 3.80664ZM8 10.1152C6.63867 10.1152 5.50977 9.01953 5.50977 7.625C5.50977 6.26367 6.60547 5.16797 8 5.16797C9.36133 5.16797 10.457 6.26367 10.457 7.625C10.457 9.01953 9.36133 10.1152 8 10.1152ZM12.8477 3.67383C12.8477 3.17578 12.4492 2.77734 11.9512 2.77734C11.4531 2.77734 11.0547 3.17578 11.0547 3.67383C11.0547 4.17188 11.4531 4.57031 11.9512 4.57031C12.4492 4.57031 12.8477 4.17188 12.8477 3.67383ZM15.3711 4.57031C15.3047 3.375 15.0391 2.3125 14.1758 1.44922C13.3125 0.585938 12.25 0.320312 11.0547 0.253906C9.82617 0.1875 6.14062 0.1875 4.91211 0.253906C3.7168 0.320312 2.6875 0.585938 1.79102 1.44922C0.927734 2.3125 0.662109 3.375 0.595703 4.57031C0.529297 5.79883 0.529297 9.48438 0.595703 10.7129C0.662109 11.9082 0.927734 12.9375 1.79102 13.834C2.6875 14.6973 3.7168 14.9629 4.91211 15.0293C6.14062 15.0957 9.82617 15.0957 11.0547 15.0293C12.25 14.9629 13.3125 14.6973 14.1758 13.834C15.0391 12.9375 15.3047 11.9082 15.3711 10.7129C15.4375 9.48438 15.4375 5.79883 15.3711 4.57031ZM13.7773 12.0078C13.5449 12.6719 13.0137 13.1699 12.3828 13.4355C11.3867 13.834 9.0625 13.7344 8 13.7344C6.9043 13.7344 4.58008 13.834 3.61719 13.4355C2.95312 13.1699 2.45508 12.6719 2.18945 12.0078C1.79102 11.0449 1.89062 8.7207 1.89062 7.625C1.89062 6.5625 1.79102 4.23828 2.18945 3.24219C2.45508 2.61133 2.95312 2.11328 3.61719 1.84766C4.58008 1.44922 6.9043 1.54883 8 1.54883C9.0625 1.54883 11.3867 1.44922 12.3828 1.84766C13.0137 2.08008 13.5117 2.61133 13.7773 3.24219C14.1758 4.23828 14.0762 6.5625 14.0762 7.625C14.0762 8.7207 14.1758 11.0449 13.7773 12.0078Z" fill="white"/>
</svg>
