<svg width="110" height="36" viewBox="0 0 110 36" fill="none" xmlns="http://www.w3.org/2000/svg">
<g clip-path="url(#clip0_3064_906)">
<path d="M22.4583 35.6766C20.35 35.6766 19.2317 34.3016 19.2317 32.0466V24.7133C19.2317 23.5216 18.5533 22.9716 17.765 22.9716C16.2983 22.9716 14.9967 24.5483 14.1167 25.52V35.6583H9.625V24.695C9.625 23.5033 8.94667 22.9533 8.15834 22.9533C6.69167 22.9533 5.39 24.53 4.51 25.5016V35.64H0V19.3783H4.41833V22.4766H4.51C6.27 20.4966 8.10334 18.8833 10.5967 18.8833C11.44 18.8833 12.3017 19.195 12.9433 19.7633C13.7317 20.46 14.0067 21.4316 14.0983 22.4766H14.1167C15.8767 20.4966 17.71 18.8833 20.2033 18.8833C21.0467 18.8833 21.9083 19.195 22.55 19.7633C23.6133 20.6983 23.7417 22.1466 23.7417 23.5033V31.7533C23.7417 32.5416 23.98 33.1833 24.75 33.1833C25.025 33.1833 25.245 33.1283 25.4283 33L25.575 33.1283C25.41 34.5583 24.3283 35.6766 22.4583 35.6766Z" fill="#003DA6"/>
<path d="M31.9919 35.6767C29.8652 35.6767 28.7285 34.3017 28.7285 32.0467V19.415H33.2385V31.8084C33.2385 32.5967 33.4769 33.2384 34.2469 33.2384C34.4852 33.2384 34.7419 33.1834 34.9252 33.055L35.0719 33.1834C34.9069 34.5584 33.8435 35.6767 31.9919 35.6767Z" fill="#003DA6"/>
<path d="M48.2537 23.4117C47.7954 23.265 47.3371 23.1917 46.8604 23.1917C45.2471 23.1917 43.9637 24.4934 42.7904 25.685V35.6767H38.2804V23.045C38.2804 22.3667 38.0604 21.8534 37.272 21.8534C37.0337 21.8534 36.777 21.9084 36.5754 22.0367L36.4287 21.9084C36.612 20.2584 37.987 19.415 39.5087 19.415C41.3054 19.415 42.5521 20.515 42.5521 22.4034V22.77H42.6437C43.9821 20.8267 45.2837 18.9384 47.7221 18.9384C47.9604 18.9384 48.2354 18.975 48.5104 19.03L48.2537 23.4117Z" fill="#003DA6"/>
<path d="M51.4615 22.7333C51.4248 22.5133 51.0032 19.4149 51.0032 19.4149C52.3415 19.0483 54.0098 18.9199 55.9715 18.9199C59.9865 18.9199 63.0848 20.5333 63.0848 25.2266L62.9932 31.7349C62.9932 32.6516 63.2682 33.2199 64.0565 33.2199C64.3315 33.2199 64.5698 33.1649 64.7532 33.0366L64.8998 33.1649C64.7532 34.5399 63.6898 35.6583 61.8198 35.6583C59.7482 35.6583 58.7765 33.8249 58.6298 32.6699H58.5382C57.0532 34.2466 55.7148 35.6583 53.7348 35.6583C51.0215 35.6583 49.4448 33.5316 49.4448 30.8733C49.4448 27.7016 51.7548 26.3449 56.1732 26.3449C56.9432 26.3449 57.8415 26.3999 58.5565 26.4916V25.1166C58.5565 23.1366 57.3832 22.1649 55.4032 22.1649C53.5148 22.1833 52.9465 22.3849 51.4615 22.7333ZM58.5565 29.0033C57.9698 28.8749 57.3098 28.8199 56.5398 28.8199C54.5232 28.8199 53.7165 29.6083 53.7165 30.7633C53.7165 31.7349 54.3215 32.5233 55.4765 32.5233C56.7232 32.5233 57.6398 31.6799 58.5565 30.7816V29.0033Z" fill="#003DA6"/>
<path d="M71.0231 35.6767C68.1081 35.6767 66.4214 34.5767 66.4214 32.45C66.4214 32.2667 66.4214 32.0834 66.4581 31.9L66.6964 31.7717C67.7597 32.45 69.1347 32.78 70.5281 32.78C72.0131 32.78 73.2047 32.2667 73.2047 30.9834C73.2047 29.8834 72.1414 29.865 70.5831 29.095C68.4564 28.0317 66.6964 26.8584 66.6964 24.09C66.6964 21.6334 68.7681 18.9384 73.5531 18.9384C74.8547 18.9384 76.0464 19.0667 77.1097 19.25L76.5964 22.3484C75.7531 22.0734 74.6164 21.89 73.5897 21.89C71.9397 21.89 71.0597 22.5684 71.0597 23.4667C71.0597 24.475 72.2331 25.1167 73.7547 25.8867C75.7897 26.895 77.7514 27.555 77.7514 30.3234C77.7514 32.5784 76.0647 35.6767 71.0231 35.6767Z" fill="#003DA6"/>
<path d="M93.7748 26.5834L83.4898 28.0134C83.8564 31.02 85.8914 32.615 89.3198 32.615C90.5298 32.615 91.9964 32.395 93.0047 31.6067L93.2248 31.7534C93.2614 31.9367 93.2614 32.5967 93.2614 32.78C93.2614 34.0817 90.5481 35.6767 88.3114 35.6767C83.0681 35.6767 79.1631 32.725 79.1631 27.335C79.1631 22.4034 82.2431 18.9384 87.1931 18.9384C91.1164 18.9384 93.8664 21.395 93.8664 25.3367C93.8664 25.7584 93.8298 26.1434 93.7748 26.5834ZM86.8081 21.5234C84.4064 21.5234 83.6181 23.2834 83.4348 25.4834L89.5764 24.5484C89.5764 22.9167 88.6964 21.5234 86.8081 21.5234Z" fill="#003DA6"/>
<path d="M109.909 26.5834L99.6235 28.0134C99.9902 31.02 102.025 32.615 105.454 32.615C106.664 32.615 108.13 32.395 109.139 31.6067L109.359 31.7534C109.395 31.9367 109.395 32.5967 109.395 32.78C109.395 34.0817 106.682 35.6767 104.445 35.6767C99.2019 35.6767 95.2969 32.725 95.2969 27.335C95.2969 22.4034 98.3769 18.9384 103.327 18.9384C107.25 18.9384 110 21.395 110 25.3367C110 25.7584 109.982 26.1434 109.909 26.5834ZM102.942 21.5234C100.54 21.5234 99.7519 23.2834 99.5685 25.4834L105.71 24.5484C105.71 22.9167 104.83 21.5234 102.942 21.5234Z" fill="#003DA6"/>
<path d="M65.6517 4.87667C65.7434 4.91333 65.9634 5.005 65.9817 5.13333C65.9817 5.15167 65.9634 5.15167 65.9634 5.15167C65.7434 5.115 65.56 5.28 65.4134 5.42667C65.2484 5.57333 65.0834 5.72 64.9001 5.84833C64.5151 6.08667 64.0934 6.27 63.6534 6.39833C63.5434 6.435 63.4334 6.45333 63.3417 6.49C62.7367 6.655 62.0951 6.72833 61.4717 6.58167C60.7934 6.41667 60.1701 5.97667 59.8584 5.335C59.8584 5.31667 59.8584 5.31667 59.8767 5.31667C60.3901 5.75667 61.9484 5.28 61.9484 5.28C60.5001 3.97833 61.5817 2.10833 59.9317 0C62.6267 0.385 63.1951 4.4 63.1951 4.4C64.9367 3.48333 65.5967 0.861667 65.5967 0.843333C65.5784 0.916667 65.6517 1.08167 65.6701 1.13667C65.6884 1.24667 65.725 1.35667 65.7434 1.46667C65.78 1.66833 65.7984 1.87 65.8167 2.07167C65.835 2.40167 65.8167 2.73167 65.7617 3.06167C65.6701 3.52 65.505 3.96 65.2484 4.345C65.175 4.455 64.9184 4.675 64.9184 4.80333C64.9184 4.85833 64.9001 4.84 64.9367 4.87667C64.9367 4.895 65.4684 4.82167 65.6517 4.87667Z" fill="#70D44B"/>
<path d="M40.663 5.44495C40.663 5.44495 39.9113 8.39662 41.6713 10.7433C40.388 10.4683 38.9946 10.1566 38.9946 10.1566C38.9946 10.1566 39.343 12.7783 42.2946 13.4566V12.0083C42.2946 12.0083 43.8713 12.1366 44.7146 10.9816C44.9346 10.9816 45.173 10.78 45.4113 10.9816C45.4113 10.9816 45.2646 10.45 44.8796 10.2483C44.4396 9.99162 43.7063 10.4316 43.7063 10.4316C43.7613 10.395 43.2296 7.13161 40.663 5.44495Z" fill="#FFC600"/>
<path d="M28.8016 13.0717C28.1783 14.135 29.3516 15.18 29.3516 15.18L29.755 13.8967C29.755 13.8967 30.6533 15.785 35.035 15.62C34.21 14.7767 32.2116 12.76 32.2116 12.76L32.7066 12.0084C32.7066 12.0084 33 11.8434 33.22 12.0084C33.44 12.1734 32.9633 11.275 32.395 11.275C31.57 11.275 29.865 13.0717 28.8016 13.0717Z" fill="#00ABC8"/>
<path d="M50.6549 9.16676C51.0032 8.45176 51.2233 8.21343 51.3516 8.28676C52.7449 9.77176 53.8999 9.18509 55.1283 9.86343C55.1466 9.86343 55.1649 9.84509 55.1466 9.84509C54.6699 9.38676 54.6516 8.23176 53.6983 7.60843C53.6433 7.57176 53.5699 7.49843 53.5883 7.42509C53.6249 7.29676 53.9183 6.98509 53.9366 6.94843C54.3766 6.54509 54.3766 6.65509 54.7616 6.60009C54.7983 6.60009 54.7983 6.54509 54.7616 6.54509C54.1566 6.25176 53.4049 6.32509 52.7816 6.52676C51.9566 6.78342 51.4433 7.04009 50.6183 7.75509C50.4716 7.88343 49.4082 8.14009 49.4082 8.14009C49.4082 8.14009 49.2616 9.22176 50.6549 9.16676Z" fill="#FF6B00"/>
<path d="M22.4583 35.6766C20.35 35.6766 19.2317 34.3016 19.2317 32.0466V24.7133C19.2317 23.5216 18.5533 22.9716 17.765 22.9716C16.2983 22.9716 14.9967 24.5483 14.1167 25.52V35.6583H9.625V24.695C9.625 23.5033 8.94667 22.9533 8.15834 22.9533C6.69167 22.9533 5.39 24.53 4.51 25.5016V35.64H0V19.3783H4.41833V22.4766H4.51C6.27 20.4966 8.10334 18.8833 10.5967 18.8833C11.44 18.8833 12.3017 19.195 12.9433 19.7633C13.7317 20.46 14.0067 21.4316 14.0983 22.4766H14.1167C15.8767 20.4966 17.71 18.8833 20.2033 18.8833C21.0467 18.8833 21.9083 19.195 22.55 19.7633C23.6133 20.6983 23.7417 22.1466 23.7417 23.5033V31.7533C23.7417 32.5416 23.98 33.1833 24.75 33.1833C25.025 33.1833 25.245 33.1283 25.4283 33L25.575 33.1283C25.41 34.5583 24.3283 35.6766 22.4583 35.6766Z" fill="#003DA6"/>
<path d="M31.9919 35.6767C29.8652 35.6767 28.7285 34.3017 28.7285 32.0467V19.415H33.2385V31.8084C33.2385 32.5967 33.4769 33.2384 34.2469 33.2384C34.4852 33.2384 34.7419 33.1834 34.9252 33.055L35.0719 33.1834C34.9069 34.5584 33.8435 35.6767 31.9919 35.6767Z" fill="#003DA6"/>
<path d="M48.2537 23.4117C47.7954 23.265 47.3371 23.1917 46.8604 23.1917C45.2471 23.1917 43.9637 24.4934 42.7904 25.685V35.6767H38.2804V23.045C38.2804 22.3667 38.0604 21.8534 37.272 21.8534C37.0337 21.8534 36.777 21.9084 36.5754 22.0367L36.4287 21.9084C36.612 20.2584 37.987 19.415 39.5087 19.415C41.3054 19.415 42.5521 20.515 42.5521 22.4034V22.77H42.6437C43.9821 20.8267 45.2837 18.9384 47.7221 18.9384C47.9604 18.9384 48.2354 18.975 48.5104 19.03L48.2537 23.4117Z" fill="#003DA6"/>
<path d="M51.4615 22.7333C51.4248 22.5133 51.0032 19.4149 51.0032 19.4149C52.3415 19.0483 54.0098 18.9199 55.9715 18.9199C59.9865 18.9199 63.0848 20.5333 63.0848 25.2266L62.9932 31.7349C62.9932 32.6516 63.2682 33.2199 64.0565 33.2199C64.3315 33.2199 64.5698 33.1649 64.7532 33.0366L64.8998 33.1649C64.7532 34.5399 63.6898 35.6583 61.8198 35.6583C59.7482 35.6583 58.7765 33.8249 58.6298 32.6699H58.5382C57.0532 34.2466 55.7148 35.6583 53.7348 35.6583C51.0215 35.6583 49.4448 33.5316 49.4448 30.8733C49.4448 27.7016 51.7548 26.3449 56.1732 26.3449C56.9432 26.3449 57.8415 26.3999 58.5565 26.4916V25.1166C58.5565 23.1366 57.3832 22.1649 55.4032 22.1649C53.5148 22.1833 52.9465 22.3849 51.4615 22.7333ZM58.5565 29.0033C57.9698 28.8749 57.3098 28.8199 56.5398 28.8199C54.5232 28.8199 53.7165 29.6083 53.7165 30.7633C53.7165 31.7349 54.3215 32.5233 55.4765 32.5233C56.7232 32.5233 57.6398 31.6799 58.5565 30.7816V29.0033Z" fill="#003DA6"/>
<path d="M71.0231 35.6767C68.1081 35.6767 66.4214 34.5767 66.4214 32.45C66.4214 32.2667 66.4214 32.0834 66.4581 31.9L66.6964 31.7717C67.7597 32.45 69.1347 32.78 70.5281 32.78C72.0131 32.78 73.2047 32.2667 73.2047 30.9834C73.2047 29.8834 72.1414 29.865 70.5831 29.095C68.4564 28.0317 66.6964 26.8584 66.6964 24.09C66.6964 21.6334 68.7681 18.9384 73.5531 18.9384C74.8547 18.9384 76.0464 19.0667 77.1097 19.25L76.5964 22.3484C75.7531 22.0734 74.6164 21.89 73.5897 21.89C71.9397 21.89 71.0597 22.5684 71.0597 23.4667C71.0597 24.475 72.2331 25.1167 73.7547 25.8867C75.7897 26.895 77.7514 27.555 77.7514 30.3234C77.7514 32.5784 76.0647 35.6767 71.0231 35.6767Z" fill="#003DA6"/>
<path d="M93.7748 26.5834L83.4898 28.0134C83.8564 31.02 85.8914 32.615 89.3198 32.615C90.5298 32.615 91.9964 32.395 93.0047 31.6067L93.2248 31.7534C93.2614 31.9367 93.2614 32.5967 93.2614 32.78C93.2614 34.0817 90.5481 35.6767 88.3114 35.6767C83.0681 35.6767 79.1631 32.725 79.1631 27.335C79.1631 22.4034 82.2431 18.9384 87.1931 18.9384C91.1164 18.9384 93.8664 21.395 93.8664 25.3367C93.8664 25.7584 93.8298 26.1434 93.7748 26.5834ZM86.8081 21.5234C84.4064 21.5234 83.6181 23.2834 83.4348 25.4834L89.5764 24.5484C89.5764 22.9167 88.6964 21.5234 86.8081 21.5234Z" fill="#003DA6"/>
<path d="M109.909 26.5834L99.6235 28.0134C99.9902 31.02 102.025 32.615 105.454 32.615C106.664 32.615 108.13 32.395 109.139 31.6067L109.359 31.7534C109.395 31.9367 109.395 32.5967 109.395 32.78C109.395 34.0817 106.682 35.6767 104.445 35.6767C99.2019 35.6767 95.2969 32.725 95.2969 27.335C95.2969 22.4034 98.3769 18.9384 103.327 18.9384C107.25 18.9384 110 21.395 110 25.3367C110 25.7584 109.982 26.1434 109.909 26.5834ZM102.942 21.5234C100.54 21.5234 99.7519 23.2834 99.5685 25.4834L105.71 24.5484C105.71 22.9167 104.83 21.5234 102.942 21.5234Z" fill="#003DA6"/>
<path d="M65.6517 4.87667C65.7434 4.91333 65.9634 5.005 65.9817 5.13333C65.9817 5.15167 65.9634 5.15167 65.9634 5.15167C65.7434 5.115 65.56 5.28 65.4134 5.42667C65.2484 5.57333 65.0834 5.72 64.9001 5.84833C64.5151 6.08667 64.0934 6.27 63.6534 6.39833C63.5434 6.435 63.4334 6.45333 63.3417 6.49C62.7367 6.655 62.0951 6.72833 61.4717 6.58167C60.7934 6.41667 60.1701 5.97667 59.8584 5.335C59.8584 5.31667 59.8584 5.31667 59.8767 5.31667C60.3901 5.75667 61.9484 5.28 61.9484 5.28C60.5001 3.97833 61.5817 2.10833 59.9317 0C62.6267 0.385 63.1951 4.4 63.1951 4.4C64.9367 3.48333 65.5967 0.861667 65.5967 0.843333C65.5784 0.916667 65.6517 1.08167 65.6701 1.13667C65.6884 1.24667 65.725 1.35667 65.7434 1.46667C65.78 1.66833 65.7984 1.87 65.8167 2.07167C65.835 2.40167 65.8167 2.73167 65.7617 3.06167C65.6701 3.52 65.505 3.96 65.2484 4.345C65.175 4.455 64.9184 4.675 64.9184 4.80333C64.9184 4.85833 64.9001 4.84 64.9367 4.87667C64.9367 4.895 65.4684 4.82167 65.6517 4.87667Z" fill="#70D44B"/>
<path d="M40.663 5.44495C40.663 5.44495 39.9113 8.39662 41.6713 10.7433C40.388 10.4683 38.9946 10.1566 38.9946 10.1566C38.9946 10.1566 39.343 12.7783 42.2946 13.4566V12.0083C42.2946 12.0083 43.8713 12.1366 44.7146 10.9816C44.9346 10.9816 45.173 10.78 45.4113 10.9816C45.4113 10.9816 45.2646 10.45 44.8796 10.2483C44.4396 9.99162 43.7063 10.4316 43.7063 10.4316C43.7613 10.395 43.2296 7.13161 40.663 5.44495Z" fill="#FFC600"/>
<path d="M28.8016 13.0717C28.1783 14.135 29.3516 15.18 29.3516 15.18L29.755 13.8967C29.755 13.8967 30.6533 15.785 35.035 15.62C34.21 14.7767 32.2116 12.76 32.2116 12.76L32.7066 12.0084C32.7066 12.0084 33 11.8434 33.22 12.0084C33.44 12.1734 32.9633 11.275 32.395 11.275C31.57 11.275 29.865 13.0717 28.8016 13.0717Z" fill="#00ABC8"/>
<path d="M50.6549 9.16676C51.0032 8.45176 51.2233 8.21343 51.3516 8.28676C52.7449 9.77176 53.8999 9.18509 55.1283 9.86343C55.1466 9.86343 55.1649 9.84509 55.1466 9.84509C54.6699 9.38676 54.6516 8.23176 53.6983 7.60843C53.6433 7.57176 53.5699 7.49843 53.5883 7.42509C53.6249 7.29676 53.9183 6.98509 53.9366 6.94843C54.3766 6.54509 54.3766 6.65509 54.7616 6.60009C54.7983 6.60009 54.7983 6.54509 54.7616 6.54509C54.1566 6.25176 53.4049 6.32509 52.7816 6.52676C51.9566 6.78342 51.4433 7.04009 50.6183 7.75509C50.4716 7.88343 49.4082 8.14009 49.4082 8.14009C49.4082 8.14009 49.2616 9.22176 50.6549 9.16676Z" fill="#FF6B00"/>
</g>
<defs>
<clipPath id="clip0_3064_906">
<rect width="110" height="35.6767" fill="white"/>
</clipPath>
</defs>
</svg>
